<?xml version="1.0" standalone="no"?>
<!DOCTYPE svg PUBLIC "-//W3C//DTD SVG 20010904//EN"
 "http://www.w3.org/TR/2001/REC-SVG-20010904/DTD/svg10.dtd">
<svg version="1.0" xmlns="http://www.w3.org/2000/svg"
 width="186.000000pt" height="186.000000pt" viewBox="0 0 186.000000 186.000000"
 preserveAspectRatio="xMidYMid meet">
<metadata>
Created by potrace 1.11, written by Peter Selinger 2001-2013
</metadata>
<g transform="translate(0.000000,186.000000) scale(0.100000,-0.100000)"
fill="#000000" stroke="none">
<path d="M706 1666 c-115 -91 -224 -178 -244 -195 -21 -16 -77 -61 -127 -101
-49 -39 -97 -76 -105 -83 -8 -7 -46 -36 -83 -66 l-68 -54 6 -46 c3 -25 9 -62
12 -81 35 -224 34 -519 -3 -767 l-15 -106 63 -64 c35 -35 73 -64 84 -65 16 -1
108 6 234 18 248 24 855 24 975 0 11 -2 53 -7 94 -10 41 -4 77 -7 80 -8 3 0
12 0 18 1 17 1 131 114 134 132 1 8 -1 37 -5 64 -25 173 -31 244 -31 420 0
155 11 360 19 374 2 3 7 31 11 61 4 30 9 58 11 61 7 11 -1 18 -426 355 -367
291 -409 324 -419 324 -5 0 -101 -74 -215 -164z"/>
</g>
</svg>
