<svg width="100%" height="100%" viewBox="0 0 800 800" version="1.1" xmlns="http://www.w3.org/2000/svg" xmlns:xlink="http://www.w3.org/1999/xlink" xmlns:sketch="http://www.bohemiancoding.com/sketch/ns">
    <title>Logo</title>
    <desc>Home Folio Logo</desc>
    <defs>
        <linearGradient x1="50%" y1="0%" x2="50%" y2="100%" id="linearGradient-1">
            <stop stop-color="#618BEA" offset="0%"></stop>
            <stop stop-color="#618BC5" offset="100%"></stop>
        </linearGradient>
        <filter x="-50%" y="-50%" width="200%" height="200%" filterUnits="objectBoundingBox" id="filter-2">
            <feOffset dx="0" dy="2" in="SourceAlpha" result="shadowOffsetOuter1"></feOffset>
            <feGaussianBlur stdDeviation="2" in="shadowOffsetOuter1" result="shadowBlurOuter1"></feGaussianBlur>
            <feColorMatrix values="0 0 0 0 0   0 0 0 0 0   0 0 0 0 0  0 0 0 0.35 0" in="shadowBlurOuter1" type="matrix" result="shadowMatrixOuter1"></feColorMatrix>
            <feMerge>
                <feMergeNode in="shadowMatrixOuter1"></feMergeNode>
                <feMergeNode in="SourceGraphic"></feMergeNode>
            </feMerge>
        </filter>
        <polygon id="path-3" points="400 0 800 342 0 342 "></polygon>
    </defs>
    <g id="Page-1" stroke="none" stroke-width="1" fill="none" fill-rule="evenodd" sketch:type="MSPage">
        <g id="Logo-2" sketch:type="MSArtboardGroup">
            <g id="Background-+-HF-+-Triangle-1-+-Line-+-Rectangle-5" sketch:type="MSLayerGroup">
                <path d="M400,800 C620.9139,800 800,620.9139 800,400 C800,179.0861 620.9139,0 400,0 C179.0861,0 0,179.0861 0,400 C0,620.9139 179.0861,800 400,800 Z" id="Background" fill="url(#linearGradient-1)" sketch:type="MSShapeGroup"></path>
                <g id="HF-+-Triangle-1-+-Line-+-Rectangle-5" transform="translate(0.000000, 41.000000)">
                    <text id="HF" fill="white" filter="url(#filter-2)" sketch:type="MSTextLayer" font-family="Roboto Slab" font-size="360" font-weight="bold" letter-spacing="25">
                        <tspan x="136" y="620" fill="#DBC090">H</tspan>
                        <tspan x="442.425781" y="620" fill="#DBC090">F</tspan>
                    </text>
                    <g id="Triangle-1-+-Line-+-Rectangle-5">
                        <mask id="mask-4" sketch:name="Triangle 1" fill="white">
                            <use xlink:href="#path-3"></use>
                        </mask>
                        <use id="Triangle-1" sketch:type="MSShapeGroup" xlink:href="#path-3"></use>
                        <path d="M353.5237,111.510381 L137.620114,368.814255 L135.691752,371.112388 L140.288018,374.969114 L142.216381,372.67098 L336.252475,141.427768 L158.846723,385.605839 L157.083367,388.03289 L161.937469,391.559601 L163.700825,389.13255 L341.106577,144.95448 L341.106577,144.95448 L181.141664,400.951854 L179.551906,403.495998 L184.640195,406.675514 L186.229953,404.131369 L364.222601,119.283588 L201.370548,413.07647 L199.916119,415.700329 L205.163837,418.609187 L206.618266,415.985328 L352.955519,151.985933 L352.955519,151.985933 L225.390403,425.550209 L224.122548,428.269132 L229.560395,430.804842 L230.828249,428.085919 L372.789648,123.648716 L246.964406,435.077119 L245.840586,437.858671 L251.403689,440.10631 L252.527509,437.324759 L365.608719,157.438944 L365.608719,157.438944 L272.340995,444.487482 L271.413944,447.340651 L277.120283,449.194753 L278.047334,446.341584 L371.315058,159.293046 L298.286924,452.192894 L297.561158,455.103781 L303.382932,456.555312 L304.108698,453.644425 L385.366961,127.735333 L385.366961,127.735333 L321.272448,457.47302 L320.700021,460.417902 L326.589784,461.562755 L327.162211,458.617874 L384.75691,162.318832 L347.971285,461.913708 L347.605677,464.891346 L353.560954,465.622562 L353.926562,462.644924 L394.863606,129.239454 L394.863606,129.239454 L371.433358,464.307604 L371.224089,467.300296 L377.209473,467.718835 L377.418743,464.726143 L398.475891,163.594899 L398.475891,465.415593 L398.475891,468.415593 L404.475891,468.415593 L404.475891,465.415593 L404.475891,163.594899 L404.475891,163.594899 L425.533038,464.726143 L425.742308,467.718835 L431.727692,467.300296 L431.518423,464.307604 L408.088175,129.239454 L449.025219,462.644924 L449.390827,465.622562 L455.346104,464.891346 L454.980496,461.913707 L418.194871,162.318832 L418.194871,162.318832 L475.78957,458.617874 L476.361997,461.562755 L482.251761,460.417901 L481.679334,457.47302 L417.58482,127.735333 L498.843083,453.644425 L499.568849,456.555312 L505.390623,455.103781 L504.664857,452.192894 L431.636723,159.293046 L431.636723,159.293046 L524.904447,446.341584 L525.831498,449.194753 L531.537837,447.340651 L530.610786,444.487482 L437.343062,157.438944 L550.424272,437.324759 L551.548092,440.10631 L557.111195,437.858671 L555.987375,435.077119 L430.162133,123.648716 L430.162133,123.648716 L572.123532,428.085919 L573.391386,430.804842 L578.829233,428.269132 L577.561378,425.550209 L449.996262,151.985933 L596.333515,415.985327 L597.787944,418.609187 L603.035662,415.700329 L601.581234,413.07647 L438.72918,119.283588 L438.72918,119.283588 L616.721828,404.131369 L618.311586,406.675514 L623.399875,403.495998 L621.810117,400.951854 L461.845204,144.954479 L639.250957,389.13255 L641.014312,391.559601 L645.868414,388.03289 L644.105058,385.605839 L466.699306,141.427768 L466.699306,141.427768 L660.7354,372.67098 L662.663763,374.969114 L667.260029,371.112388 L665.331667,368.814255 L449.428083,111.510383 L680.56367,359.372955 L684.951781,355.280952 L682.905786,353.086891 L410.711319,61.1940611 L408.665323,59 L405.865572,61.6108106 L405.865572,61.6108106 L405.447625,61.9615098 L405.196111,62.1442451 L405.196111,62.1442451 L404.733424,62.4333643 L404.447658,62.5917666 L404.447658,62.5917666 L404.15154,62.7298491 L403.645676,62.9342311 L403.645676,62.9342311 L403.350005,63.0303007 L402.82062,63.1622911 L402.82062,63.1622911 L402.499892,63.2246343 L402.175596,63.2644528 L402.175596,63.2644528 L401.631334,63.3025113 L401.320447,63.3025113 L401.320447,63.3025113 L400.776184,63.2644528 L400.451889,63.2246343 L400.451889,63.2246343 L400.131161,63.1622911 L399.601776,63.0303007 L399.601776,63.0303007 L399.306104,62.9342311 L398.800241,62.7298491 L398.800241,62.7298491 L398.504122,62.5917666 L398.218357,62.4333643 L398.218357,62.4333643 L397.75567,62.1442451 L397.504156,61.9615098 L397.504156,61.9615098 L397.086209,61.6108106 L394.286458,59.0000002 L392.240463,61.1940613 L156.899597,313.566242 C144.615063,326.739792 120.045995,353.086891 120.045995,353.086891 L118,355.280952 L122.388122,359.372942 L353.5237,111.510381 Z" id="Line" fill="#FFF8E4" sketch:type="MSShapeGroup" mask="url(#mask-4)"></path>
                        <path d="M401.096202,0.0121843286 C402.532767,0.0819384373 403.949131,0.66532177 405.04627,1.76246123 L714.758923,311.475114 C717.102852,313.819043 717.102374,317.617061 714.759533,319.959903 L694.95944,339.759995 C692.617081,342.102354 688.81783,342.102563 686.474651,339.759385 L400.755844,54.0405771 L115.041653,339.754768 C112.697724,342.098697 108.899705,342.098219 106.556864,339.755378 L86.7567716,319.955285 C84.4144121,317.612926 84.4142034,313.813675 86.7573817,311.470496 L396.470034,1.75784403 C397.739596,0.488281816 399.435748,-0.0934965098 401.096202,0.0121843286 Z" id="Rectangle-5" fill="#4A4A4A" sketch:type="MSShapeGroup" mask="url(#mask-4)"></path>
                    </g>
                </g>
            </g>
        </g>
    </g>
</svg>
